<svg width="60" height="60" viewBox="0 0 60 60" fill="none" xmlns="http://www.w3.org/2000/svg">
<path d="M27.9096 2.93363C42.8054 1.80475 55.7978 12.961 56.934 27.8562C58.0702 42.7515 46.9204 55.7493 32.0258 56.893C17.1206 58.0374 4.11174 46.8781 2.9747 31.9724C1.83766 17.0667 13.0034 4.06331 27.9096 2.93363ZM31.6141 54.5112C45.1687 53.5875 55.4178 41.8665 54.5251 28.3098C53.6324 14.7532 41.9348 4.4773 28.3762 5.33897C14.7736 6.20345 4.45709 17.9472 5.35268 31.5478C6.24828 45.1484 18.0157 55.438 31.6141 54.5112Z" fill="white"/>
<path d="M28.959 14.1471C32.6757 13.8452 35.9807 15.2808 37.7702 18.6517C38.8684 20.7271 39.0991 23.1532 38.4118 25.3984C37.5336 28.2202 35.7085 29.7294 33.2166 31.0337C34.7445 31.0578 36.9888 32.068 38.2553 32.8878C41.5358 35.0111 43.9662 38.8607 44.1134 42.8088C44.1488 43.7594 44.3091 44.3127 43.7517 45.1653C42.9379 45.5463 40.1444 45.3786 39.083 45.3772L31.0911 45.3736L20.4989 45.3723C19.1765 45.37 17.8396 45.4142 16.5222 45.3838C16.4579 45.348 16.3945 45.3107 16.3319 45.272C15.5046 44.7573 15.6734 43.7094 15.7142 42.8741C15.8206 40.6944 16.4436 38.76 17.634 36.9283C19.6658 33.7975 22.8673 31.6116 26.5229 30.8591C25.7752 30.5367 25.1822 30.243 24.5217 29.7577C20.6389 26.9046 20.018 21.3418 22.8773 17.5414C24.4499 15.4513 26.4297 14.527 28.959 14.1471ZM18.0447 43.3544C19.2113 43.3214 20.4671 43.3585 21.6487 43.3566L30.498 43.3586C34.195 43.3583 38.0405 43.4139 41.7237 43.3512C41.693 40.7195 40.6329 38.2045 38.7705 36.3449C36.3312 33.922 33.2012 32.8105 29.7973 32.8303C29.6597 32.8312 29.5222 32.833 29.3847 32.8359C25.8995 33.0863 22.931 34.2814 20.5736 36.9644C18.7904 38.9938 18.361 40.7895 18.0447 43.3544ZM30.0882 29.186C33.609 29.1042 36.3929 26.1765 36.2974 22.6561C36.202 19.1356 33.2636 16.3631 29.7435 16.4722C26.2427 16.5808 23.4887 19.4996 23.5836 23.0008C23.6785 26.502 26.5867 29.2674 30.0882 29.186Z" fill="white"/>
</svg>
